<?xml version="1.0" standalone="no"?><!DOCTYPE svg PUBLIC "-//W3C//DTD SVG 1.1//EN" "http://www.w3.org/Graphics/SVG/1.1/DTD/svg11.dtd"><svg t="1725797467032" class="icon" viewBox="0 0 1024 1024" version="1.1" xmlns="http://www.w3.org/2000/svg" p-id="7277" xmlns:xlink="http://www.w3.org/1999/xlink" width="200" height="200"><path d="M512 512m-414 0a414 414 0 1 0 828 0 414 414 0 1 0-828 0Z" fill="#F0C48A" p-id="7278"></path><path d="M874.2 1012.2H413c-46.4 0-84.2-37.6-84.2-84.2V95.8c0-46.4 37.6-84.2 84.2-84.2h461.4c46.4 0 84.2 37.6 84.2 84.2v832.4c-0.2 46.4-37.8 84-84.4 84z" fill="#D3E6F8" p-id="7279"></path><path d="M856.8 1005h26c43 0 77.6-34.8 77.6-77.6V113c0-57-46.2-103.2-103.2-103.2h-0.4v995.2z" fill="#A4CFF2" p-id="7280"></path><path d="M643.6 688m-96.2 0a96.2 96.2 0 1 0 192.4 0 96.2 96.2 0 1 0-192.4 0Z" fill="#FFFFFF" p-id="7281"></path><path d="M835.4 262.6H451.8c-22.4 0-40.6-18.2-40.6-40.6V161.2c0-22.4 18.2-40.6 40.6-40.6h383.8c22.4 0 40.6 18.2 40.6 40.6V222c0 22.4-18.2 40.6-40.8 40.6zM835.4 484.2H451.8c-22.4 0-40.6-18.2-40.6-40.6v-60.8c0-22.4 18.2-40.6 40.6-40.6h383.8c22.4 0 40.6 18.2 40.6 40.6v60.8c0 22.4-18.2 40.6-40.8 40.6zM316.8 692.8v237.4c18.2-0.6 32.8-15.4 32.8-33.8v-169.8c0-18.2-14.6-33.2-32.8-33.8z" fill="#A4CFF2" p-id="7282"></path><path d="M874.2 1024H413c-52.8 0-95.8-43-95.8-95.8V95.8c0-52.8 43-95.8 95.8-95.8h461.4c52.8 0 95.8 43 95.8 95.8v832.4c0 52.8-43 95.8-96 95.8zM413 23.4c-40 0-72.4 32.4-72.4 72.4v832.4c0 40 32.4 72.4 72.4 72.4h461.4c40 0 72.4-32.4 72.4-72.4V95.8c0-40-32.4-72.4-72.4-72.4H413z" fill="#4C4372" p-id="7283"></path><path d="M643.6 795.8c-59.4 0-107.8-48.4-107.8-107.8s48.4-107.8 107.8-107.8 107.8 48.4 107.8 107.8-48.2 107.8-107.8 107.8z m0-192.2c-46.6 0-84.4 37.8-84.4 84.4s37.8 84.4 84.4 84.4S728 734.6 728 688s-37.8-84.4-84.4-84.4z" fill="#4C4372" p-id="7284"></path><path d="M643.6 743c-14 0-28.2-5.4-38.8-16-10.4-10.4-16.2-24.2-16.2-38.8 0-14.6 5.8-28.4 16.2-38.8 4.6-4.6 12-4.6 16.6 0 4.6 4.6 4.6 12 0 16.6-6 6-9.2 13.8-9.2 22.4 0 8.4 3.2 16.4 9.2 22.4 12.4 12.2 32.4 12.2 44.6 0 12.2-12.2 12.2-32.4 0-44.6-4.6-4.6-4.6-12 0-16.6 4.6-4.6 12-4.6 16.6 0 21.4 21.4 21.4 56.4 0 77.8-10.8 10.2-24.8 15.6-39 15.6z" fill="#4C4372" p-id="7285"></path><path d="M643.6 699.8c-6.4 0-11.8-5.2-11.8-11.8v-63c0-6.4 5.2-11.8 11.8-11.8s11.8 5.2 11.8 11.8V688c0 6.4-5.2 11.8-11.8 11.8z" fill="#4C4372" p-id="7286"></path><path d="M840 262.6h-50.6V120.4H840c20 0 36.2 16.2 36.2 36.2v69.8c0 20-16.2 36.2-36.2 36.2zM840 484.2h-50.6V342H840c20 0 36.2 16.2 36.2 36.2V448c0 20-16.2 36.2-36.2 36.2z" fill="#7BABF1" p-id="7287"></path><path d="M835.4 274.2H451.8c-28.8 0-52.4-23.6-52.4-52.4V161.2c0-28.8 23.6-52.4 52.4-52.4h383.8c28.8 0 52.4 23.6 52.4 52.4V222c-0.2 28.8-23.6 52.2-52.6 52.2z m-383.6-142c-16 0-29 13-29 29V222c0 16 13 29 29 29h383.8c16 0 29-13 29-29V161.2c0-16-13-29-29-29H451.8zM835.4 495.8H451.8c-28.8 0-52.4-23.6-52.4-52.4v-60.8c0-28.8 23.6-52.4 52.4-52.4h383.8c28.8 0 52.4 23.6 52.4 52.4v60.8c-0.2 29-23.6 52.4-52.6 52.4z m-383.6-142c-16 0-29 13-29 29v60.8c0 16 13 29 29 29h383.8c16 0 29-13 29-29v-60.8c0-16-13-29-29-29H451.8z" fill="#4C4372" p-id="7288"></path><path d="M409.8 1012.2H122.8c-31.6 0-57.2-25.6-57.2-57.2V668c0-31.6 25.6-57.2 57.2-57.2h287c31.6 0 57.2 25.6 57.2 57.2v287c0 31.6-25.6 57.2-57.2 57.2z" fill="#FD919E" p-id="7289"></path><path d="M409.4 1010h-24.4V608.4h24.4c31.8 0 57.6 25.8 57.6 57.6v286.4c0 31.8-25.8 57.6-57.6 57.6z" fill="#E8677D" p-id="7290"></path><path d="M409.8 1024H122.8c-38 0-69-31-69-69V668c0-38 31-69 69-69h287c38 0 69 31 69 69v287c0 38-31 69-69 69zM122.8 622.6c-25 0-45.4 20.4-45.4 45.4v287c0 25 20.4 45.4 45.4 45.4h287c25 0 45.4-20.4 45.4-45.4V668c0-25-20.4-45.4-45.4-45.4H122.8z" fill="#4C4372" p-id="7291"></path><path d="M351.2 930.2H181.4c-18.6 0-33.8-15.2-33.8-33.8v-169.8c0-18.6 15.2-33.8 33.8-33.8h169.8c18.6 0 33.8 15.2 33.8 33.8v169.8c0 18.8-15.2 33.8-33.8 33.8z" fill="#FFFFFF" p-id="7292"></path><path d="M318.4 704.6c-6.4 0-11.8-5.2-11.8-11.8v-47.8c0-6.4 5.2-11.8 11.8-11.8s11.8 5.2 11.8 11.8v47.8c0 6.6-5.2 11.8-11.8 11.8zM266.4 704.6c-6.4 0-11.8-5.2-11.8-11.8v-47.8c0-6.4 5.2-11.8 11.8-11.8s11.8 5.2 11.8 11.8v47.8c-0.2 6.6-5.4 11.8-11.8 11.8zM214.2 704.6c-6.4 0-11.8-5.2-11.8-11.8v-47.8c0-6.4 5.2-11.8 11.8-11.8s11.8 5.2 11.8 11.8v47.8c-0.2 6.6-5.4 11.8-11.8 11.8zM318.4 989.6c-6.4 0-11.8-5.2-11.8-11.8V930c0-6.4 5.2-11.8 11.8-11.8s11.8 5.2 11.8 11.8v48c0 6.4-5.2 11.6-11.8 11.6zM266.4 989.6c-6.4 0-11.8-5.2-11.8-11.8V930c0-6.4 5.2-11.8 11.8-11.8s11.8 5.2 11.8 11.8v48c-0.2 6.4-5.4 11.6-11.8 11.6zM214.2 989.6c-6.4 0-11.8-5.2-11.8-11.8V930c0-6.4 5.2-11.8 11.8-11.8s11.8 5.2 11.8 11.8v48c-0.2 6.4-5.4 11.6-11.8 11.6z" fill="#4C4372" p-id="7293"></path><path d="M432.6 875.4h-47.8c-6.4 0-11.8-5.2-11.8-11.8 0-6.4 5.2-11.8 11.8-11.8h47.8c6.4 0 11.8 5.2 11.8 11.8 0 6.6-5.2 11.8-11.8 11.8zM432.6 823.2h-47.8c-6.4 0-11.8-5.2-11.8-11.8 0-6.4 5.2-11.8 11.8-11.8h47.8c6.4 0 11.8 5.2 11.8 11.8 0 6.6-5.2 11.8-11.8 11.8zM432.6 771.2h-47.8c-6.4 0-11.8-5.2-11.8-11.8 0-6.4 5.2-11.8 11.8-11.8h47.8c6.4 0 11.8 5.2 11.8 11.8 0 6.4-5.2 11.8-11.8 11.8z" fill="#4C4372" p-id="7294"></path><path d="M147.6 875.4H100c-6.4 0-11.8-5.2-11.8-11.8 0-6.4 5.2-11.8 11.8-11.8h47.8c6.4 0 11.8 5.2 11.8 11.8-0.2 6.6-5.4 11.8-12 11.8zM147.6 823.2H100c-6.4 0-11.8-5.2-11.8-11.8 0-6.4 5.2-11.8 11.8-11.8h47.8c6.4 0 11.8 5.2 11.8 11.8-0.2 6.6-5.4 11.8-12 11.8zM147.6 771.2H100c-6.4 0-11.8-5.2-11.8-11.8 0-6.4 5.2-11.8 11.8-11.8h47.8c6.4 0 11.8 5.2 11.8 11.8-0.2 6.4-5.4 11.8-12 11.8z" fill="#4C4372" p-id="7295"></path><path d="M352.4 930.2h-19.8V687h19.8c18 0 32.6 14.6 32.6 32.6v178c0 18-14.6 32.6-32.6 32.6z" fill="#D3E6F8" p-id="7296"></path><path d="M351.2 942H181.4c-25.2 0-45.6-20.4-45.6-45.6v-169.8c0-25.2 20.4-45.6 45.6-45.6h169.8c25.2 0 45.6 20.4 45.6 45.6v169.8c0 25.2-20.6 45.6-45.6 45.6zM181.4 704.6c-12.2 0-22.2 10-22.2 22.2v169.8c0 12.2 10 22.2 22.2 22.2h169.8c12.2 0 22.2-10 22.2-22.2v-169.8c0-12.2-10-22.2-22.2-22.2H181.4z" fill="#4C4372" p-id="7297"></path></svg>