<?xml version="1.0" standalone="no"?><!DOCTYPE svg PUBLIC "-//W3C//DTD SVG 1.1//EN" "http://www.w3.org/Graphics/SVG/1.1/DTD/svg11.dtd"><svg t="1725798384857" class="icon" viewBox="0 0 1024 1024" version="1.1" xmlns="http://www.w3.org/2000/svg" p-id="11332" xmlns:xlink="http://www.w3.org/1999/xlink" width="200" height="200"><path d="M802.498 223.598C643.22 180.92 479.508 275.43 436.832 434.706c-42.678 159.306 51.848 323.02 211.14 365.698 159.276 42.678 322.988-51.832 365.664-211.138 42.678-159.278-51.862-322.99-211.138-365.668z m-55.926 325.332c-20.434 11.778-46.488 4.78-58.268-15.59-11.78-20.402-4.78-46.49 15.59-58.268 20.432-11.778 46.49-4.78 58.268 15.59 11.78 20.4 4.782 46.488-15.59 58.268z" fill="#E6E9ED" p-id="11333"></path><path d="M1013.634 589.264a288.578 288.578 0 0 0 4.782-20.776l-251.972-67.518c4.874 18.184-2.812 38.086-19.872 47.958a44.008 44.008 0 0 1-10.308 4.28l184.52 184.458c43.612-37.708 76.792-88.478 92.85-148.402z" fill="#F5F7FA" p-id="11334"></path><path d="M725.232 597.292c-47.02 0-85.324-38.242-85.324-85.292 0-47.052 38.304-85.292 85.324-85.292 47.022 0 85.324 38.242 85.324 85.292 0 47.05-38.302 85.292-85.324 85.292z m0-127.938c-23.524 0-42.644 19.122-42.644 42.646s19.122 42.646 42.644 42.646c23.528 0 42.648-19.122 42.648-42.646s-19.12-42.646-42.648-42.646z" fill="#CCD1D9" p-id="11335"></path><path d="M0.12 170.766h682.468v682.468H0.12z" fill="#FFCE54" p-id="11336"></path><path d="M117.42 661.278l127.97-213.264 127.956 213.264z" fill="#434A54" p-id="11337"></path><path d="M224.052 661.278l170.616-298.588 170.634 298.588z" fill="#656D78" p-id="11338"></path></svg>