<?xml version="1.0" standalone="no"?><!DOCTYPE svg PUBLIC "-//W3C//DTD SVG 1.1//EN" "http://www.w3.org/Graphics/SVG/1.1/DTD/svg11.dtd"><svg t="1725586060230" class="icon" viewBox="0 0 1024 1024" version="1.1" xmlns="http://www.w3.org/2000/svg" p-id="11334" xmlns:xlink="http://www.w3.org/1999/xlink" width="200" height="200"><path d="M893.44 1018.88h-762.88c-49.152 0-89.088-39.936-89.088-89.088v-451.584c0-49.152 39.936-89.088 89.088-89.088h39.424v-41.984c0-188.416 153.6-342.016 342.016-342.016 167.424 0 312.832 124.928 337.92 290.304 6.144 40.448-22.016 78.336-62.464 84.48-19.456 3.072-39.424-2.048-55.296-13.312-15.872-11.776-26.624-29.184-29.696-48.64-13.824-93.696-95.744-164.352-190.464-164.352-106.496 0-193.024 86.528-193.024 193.024v41.984h574.976c49.152 0 89.088 39.936 89.088 89.088v451.584c-0.512 49.664-40.448 89.6-89.6 89.6z m-762.88-570.88c-16.384 0-29.696 13.312-29.696 29.696v451.584c0 16.384 13.312 29.696 29.696 29.696h762.88c16.384 0 29.696-13.312 29.696-29.696v-451.584c0-16.384-13.312-29.696-29.696-29.696h-604.672c-16.384 0-29.696-13.312-29.696-29.696v-71.68c0-139.264 113.152-252.928 252.928-252.928 123.904 0 231.424 92.16 249.856 214.528 1.024 5.12 4.096 8.192 6.144 9.728 2.048 1.536 5.632 3.584 10.752 2.56 5.12-1.024 8.192-4.096 9.728-6.144s3.584-5.632 2.56-11.264c-20.992-136.704-140.8-240.128-279.04-240.128-155.648 0-282.624 126.464-282.624 282.624v71.68c0 16.384-13.312 29.696-29.696 29.696h-69.12z" fill="#64849E" p-id="11335"></path><path d="M697.344 729.6c-6.144 49.664-31.232 94.208-70.656 124.928-33.28 26.112-73.728 39.936-115.2 39.936-7.68 0-15.36-0.512-23.04-1.536-49.664-6.144-94.208-31.232-124.928-70.656-30.72-39.424-44.544-88.576-38.4-138.24 12.288-102.912 106.496-176.128 208.896-163.84 19.456 2.56 38.4 7.68 55.808 15.872-3.072-16.896 7.68-33.792 24.576-37.376 17.408-3.584 34.816 7.168 38.4 24.576l17.408 79.872c2.048 8.704 0 17.92-4.608 25.088-5.12 7.168-12.8 12.288-21.504 13.824l-76.288 12.288c-1.536 0.512-3.584 0.512-5.12 0.512-15.36 0-29.184-11.264-31.744-27.136-2.56-16.384 7.68-32.256 24.064-36.352-9.216-3.584-18.432-5.632-28.672-7.168-67.584-8.192-129.024 39.936-137.216 107.52-4.096 32.768 5.12 65.024 25.088 91.136 20.48 26.112 49.664 42.496 82.432 46.592 32.768 4.096 65.024-5.12 91.136-25.088 26.112-20.48 42.496-49.664 46.592-82.432 2.048-17.408 17.92-30.208 35.84-28.16 16.896 2.048 29.696 17.92 27.136 35.84z" fill="#0FBED7" p-id="11336"></path></svg>