<?xml version="1.0" standalone="no"?><!DOCTYPE svg PUBLIC "-//W3C//DTD SVG 1.1//EN" "http://www.w3.org/Graphics/SVG/1.1/DTD/svg11.dtd"><svg t="1725586016594" class="icon" viewBox="0 0 1024 1024" version="1.1" xmlns="http://www.w3.org/2000/svg" p-id="10165" xmlns:xlink="http://www.w3.org/1999/xlink" width="200" height="200"><path d="M972.8 76.8H51.2a51.2 51.2 0 0 0-51.2 51.2v665.6a51.2 51.2 0 0 0 51.2 51.2h358.4l102.4 102.4 102.4-102.4h358.4a51.2 51.2 0 0 0 51.2-51.2V128a51.2 51.2 0 0 0-51.2-51.2z" fill="#3BAFDA" p-id="10166"></path><path d="M481.4592 431.4624c1.152 0.3072 2.2528 0.7168 3.3792 1.024 0.7168 0.1792 1.3568 0.512 2.0736 0.6656 8.192 1.9968 16.6144 3.0464 25.088 3.1232l1.024-0.0768a113.664 113.664 0 0 0 24.064-3.0464 110.3872 110.3872 0 0 0 85.4272-107.4176 110.5152 110.5152 0 0 0-109.4912-110.4896L512 215.1936c-2.7136 0-5.248 0.6144-7.9104 0.7936-1.1264 0.1024-2.2528 0.2816-3.3536 0.4096-55.68 5.6832-99.3024 52.1216-99.3024 109.3376 0.0256 50.3808 33.92 92.4416 80.0256 105.728zM670.6432 470.5792h-71.5264l-86.0672 103.7056-88.1152-103.7056h-71.552a25.6 25.6 0 0 0-25.6 25.6v210.2272h368.4864v-210.2272c-0.0256-14.1568-11.4944-25.6-25.6256-25.6z" fill="#EFF2F4" p-id="10167"></path></svg>