<?xml version="1.0" encoding="UTF-8"?>
<svg id="_图层_2" data-name="图层 2" xmlns="http://www.w3.org/2000/svg" xmlns:xlink="http://www.w3.org/1999/xlink" viewBox="0 0 783 516">
  <defs>
    <style>
      .cls-1 {
        fill: url(#_未命名的渐变_18-5);
      }

      .cls-2 {
        fill: url(#_未命名的渐变_18);
      }

      .cls-3 {
        fill: url(#_未命名的渐变_18-6);
      }

      .cls-4 {
        fill: url(#_未命名的渐变_18-10);
      }

      .cls-5 {
        fill: url(#_未命名的渐变_18-4);
      }

      .cls-6 {
        fill: url(#_未命名的渐变_18-3);
      }

      .cls-7 {
        fill: url(#_未命名的渐变_18-8);
      }

      .cls-8 {
        fill: url(#_未命名的渐变_18-2);
      }

      .cls-9 {
        fill: url(#_未命名的渐变_18-9);
      }

      .cls-10 {
        fill: url(#_未命名的渐变_18-7);
      }
    </style>
    <linearGradient id="_未命名的渐变_18" data-name="未命名的渐变 18" x1="0" y1="258" x2="783" y2="258" gradientUnits="userSpaceOnUse">
      <stop offset="0" stop-color="#97d9e1"/>
      <stop offset="1" stop-color="#d9afd9"/>
    </linearGradient>
    <linearGradient id="_未命名的渐变_18-2" data-name="未命名的渐变 18" x1="-148.46" y1="372.21" x2="631.92" y2="333.89" xlink:href="#_未命名的渐变_18"/>
    <linearGradient id="_未命名的渐变_18-3" data-name="未命名的渐变 18" x1="-147.34" y1="395.03" x2="633.04" y2="356.7" xlink:href="#_未命名的渐变_18"/>
    <linearGradient id="_未命名的渐变_18-4" data-name="未命名的渐变 18" x1="-147.63" y1="389.25" x2="632.76" y2="350.93" xlink:href="#_未命名的渐变_18"/>
    <linearGradient id="_未命名的渐变_18-5" data-name="未命名的渐变 18" x1="-147.77" y1="386.31" x2="632.62" y2="347.99" xlink:href="#_未命名的渐变_18"/>
    <linearGradient id="_未命名的渐变_18-6" data-name="未命名的渐变 18" x1="-146.85" y1="404.97" x2="633.53" y2="366.64" xlink:href="#_未命名的渐变_18"/>
    <linearGradient id="_未命名的渐变_18-7" data-name="未命名的渐变 18" x1="-146.72" y1="407.64" x2="633.66" y2="369.32" xlink:href="#_未命名的渐变_18"/>
    <linearGradient id="_未命名的渐变_18-8" data-name="未命名的渐变 18" x1="-147.42" y1="393.44" x2="632.97" y2="355.12" xlink:href="#_未命名的渐变_18"/>
    <linearGradient id="_未命名的渐变_18-9" data-name="未命名的渐变 18" x1="-146.93" y1="403.44" x2="633.46" y2="365.12" xlink:href="#_未命名的渐变_18"/>
    <linearGradient id="_未命名的渐变_18-10" data-name="未命名的渐变 18" x1="-145.71" y1="428.22" x2="634.67" y2="389.9" xlink:href="#_未命名的渐变_18"/>
  </defs>
  <g id="_图层_1-2" data-name="图层 1">
    <path class="cls-2" d="m691.42,196.25c.01-.09.02-.18.02-.26.26-3.94.4-7.91.4-11.91C691.84,82.58,606.4,0,501.4,0c-73.35,0-137.14,40.29-168.94,99.19-19.39-9.58-41.32-14.98-64.54-14.98-63.67,0-117.71,40.63-135.83,96.47C54.89,200-1.95,268.77.05,349.77c2.29,92.7,81.77,166.23,177.7,166.23h429.51c.59,0,1.19,0,1.77,0,.75,0,1.51-.02,2.26-.04,95.08-2.34,171.71-77.85,171.71-170.32,0-64.3-37.04-120.38-91.58-149.39Zm-83.01,273.72c-.38,0-.77,0-1.15,0H177.62c-69.12,0-128.37-54.61-129.98-121.4-1.27-52.57,31.41-98.06,78.29-117.39,7.5-3.09,15.36-5.52,23.5-7.2.08-.02.15-.03.23-.05,12.83-2.6,23.14-11.87,26.31-24.16.13-.51.26-1.01.4-1.51,2.24-8.18,5.62-15.9,9.99-23.01,16.5-26.94,46.88-45.04,81.55-45.04,17.45,0,33.82,4.58,47.87,12.58,7.78,4.42,14.85,9.88,21,16.19,4.05,4.14,7.7,8.65,10.89,13.46,1.16,1.75,3.18,2.81,5.33,2.81h0c3.28,0,6-2.42,6.34-5.58.62-5.83,1.62-11.55,2.98-17.14,2.13-8.78,5.13-17.24,8.9-25.29,22.45-47.87,72.35-81.24,130.16-81.24,77,0,139.97,59.2,142.73,132.99v.11c-10.64-2.23-21.62-3.52-32.86-3.81-.75-.02-1.5-.03-2.25-.04-.59,0-1.19,0-1.77,0h-.51c-31.99.09-62,8.46-87.86,23.01-11.56,6.49-22.28,14.23-31.99,23.01-8.13,7.35-15.54,15.44-22.11,24.15-11.47,15.2-.23,36.56,19.23,36.56h0c7.57,0,14.71-3.46,19.17-9.38,23.31-30.96,61.04-51.16,103.56-51.32h.51c.38,0,.77,0,1.15,0,10.14.08,20.01,1.31,29.47,3.54,7.81,1.85,15.35,4.4,22.53,7.56,7.41,3.26,14.45,7.19,21.04,11.7,32.92,22.54,54.46,59.65,54.46,101.54,0,68.2-57.08,123.74-127.49,124.34Z"/>
    <g>
      <path class="cls-8" d="m165.97,387.36h-31.68l-6.19,26.07h-26.21l33.26-113.42h30.82l33.26,113.42h-27.07l-6.19-26.07Zm-4.9-21.04l-2.3-9.6c-2.88-11.28-5.62-24.85-8.5-36.44h-.58c-2.59,11.89-5.47,25.15-8.21,36.44l-2.3,9.6h21.89Z"/>
      <path class="cls-6" d="m202.07,385.11v-45.93h21.94v43.06c0,10.31,2.59,13.18,8.13,13.18,4.93,0,8.01-2.09,11.71-7.57v-48.67h21.94v74.24h-17.87l-1.6-10.18h-.49c-5.79,7.31-12.32,12-21.94,12-15.28,0-21.81-11.61-21.81-30.14Z"/>
      <path class="cls-5" d="m281.94,385.89v-28.58h-9.49v-17.22l10.72-.91,2.46-19.57h18.24v19.57h16.51v18.14h-16.51v28.31c0,8.22,3.7,11.48,8.87,11.48,2.22,0,4.68-.78,6.41-1.31l3.45,16.7c-3.7,1.17-8.75,2.74-15.9,2.74-17.62,0-24.77-11.74-24.77-29.36Z"/>
      <path class="cls-1" d="m329.63,309.17h21.81v25.05l-.99,13.18c5.05-4.96,11.95-10.05,21.44-10.05,15.28,0,21.81,11.61,21.81,30.14v45.93h-21.94v-43.06c0-10.18-2.59-13.18-8.13-13.18-4.93,0-7.89,2.35-12.2,6.65v49.58h-21.81v-104.25Z"/>
      <path class="cls-3" d="m402.47,376.37c0-24.66,16.51-39.01,34.39-39.01s34.26,14.35,34.26,39.01-16.51,38.88-34.26,38.88-34.39-14.35-34.39-38.88Zm46.22,0c0-12.4-3.7-20.22-11.83-20.22s-11.96,7.83-11.96,20.22,3.7,20.09,11.96,20.09,11.83-7.83,11.83-20.09Z"/>
      <path class="cls-10" d="m480.61,339.18h17.87l1.48,12.92h.49c5.18-9.92,12.94-14.74,19.97-14.74,4.19,0,6.53.65,8.5,1.57l-3.7,19.96c-2.47-.65-4.56-1.17-7.64-1.17-5.18,0-11.46,3.52-15.16,13.31v42.41h-21.81v-74.24Z"/>
      <path class="cls-7" d="m531.88,317c0-7.05,5.18-12,12.57-12s12.45,4.96,12.45,12-5.18,11.87-12.45,11.87-12.57-4.96-12.57-11.87Zm1.6,22.18h21.81v74.24h-21.81v-74.24Z"/>
      <path class="cls-9" d="m571.57,385.89v-28.58h-9.49v-17.22l10.72-.91,2.46-19.57h18.24v19.57h16.51v18.14h-16.51v28.31c0,8.22,3.7,11.48,8.87,11.48,2.22,0,4.68-.78,6.41-1.31l3.45,16.7c-3.7,1.17-8.75,2.74-15.9,2.74-17.62,0-24.77-11.74-24.77-29.36Z"/>
      <path class="cls-4" d="m617.66,440.57l3.94-17.62c1.23.26,3.08.91,4.68.91,6.66,0,10.11-3.65,11.71-8.87l.99-3.78-26.87-72.03h22.06l9.37,30.79c2.09,6.79,3.57,13.7,5.42,21.01h.62c1.36-7.05,2.96-13.96,4.56-21.01l8.13-30.79h20.83l-24.03,74.37c-6.9,19.05-14.42,28.45-31.06,28.45-4.56,0-7.39-.52-10.35-1.43Z"/>
    </g>
  </g>
</svg>