<?xml version="1.0" standalone="no"?><!DOCTYPE svg PUBLIC "-//W3C//DTD SVG 1.1//EN" "http://www.w3.org/Graphics/SVG/1.1/DTD/svg11.dtd"><svg t="1725799271601" class="icon" viewBox="0 0 1024 1024" version="1.1" xmlns="http://www.w3.org/2000/svg" p-id="17604" xmlns:xlink="http://www.w3.org/1999/xlink" width="200" height="200"><path d="M653.88544 0a92.16 92.16 0 0 1 65.09568 26.9312l187.61728 187.21792a92.16 92.16 0 0 1 27.05408 65.2288v120.6272A80.10752 80.10752 0 0 1 1013.76 480.09216v319.7952a80.10752 80.10752 0 0 1-77.55776 80.06656l-2.54976 0.03072v48.00512c0 53.02272-43.02848 96-96.12288 96H196.7104c-53.0944 0-96.12288-42.97728-96.12288-96v-48.00512A80.10752 80.10752 0 0 1 20.48 799.8976v-319.7952a80.10752 80.10752 0 0 1 77.55776-80.06656l2.54976-0.04096V96C100.58752 42.97728 143.616 0 196.7104 0h457.17504zM837.5296 879.99488H196.7104v17.28512a30.72 30.72 0 0 0 30.72 30.72h579.3792a30.72 30.72 0 0 0 30.72-30.72v-17.28512zM337.88928 559.49312h-60.3136L243.73248 719.36h41.85088l13.38368-63.55968h7.64928c6.08256 0 10.52672 0.90112 13.33248 2.69312 2.816 1.80224 4.74112 4.95616 5.79584 9.45152l11.25376 51.41504h41.96352l-11.81696-54.33344c-1.4336-6.98368-3.33824-12.288-5.7344-15.9232a32.18432 32.18432 0 0 0-10.1376-9.50272c14.0288-1.1264 24.87296-5.2224 32.52224-12.26752 7.64928-7.04512 11.4688-16.45568 11.4688-28.23168 0-13.12768-4.79232-23.00928-14.39744-29.6448-9.59488-6.63552-23.92064-9.96352-42.96704-9.96352z m193.3824 0h-52.98176L383.78496 719.36h44.89216l19.11808-34.08896h62.6688l4.15744 34.08896h42.41408l-25.76384-159.86688z m137.02144 0h-66.2528l-34.2016 159.86688h39.26016l20.24448-93.82912c0.37888-1.72032 1.16736-5.98016 2.36544-12.76928 1.19808-6.77888 2.70336-15.36 4.5056-25.7024h1.90464l5.7344 132.3008h39.38304l62.208-132.3008h1.35168a914.97472 914.97472 0 0 0-4.89472 18.90304 366.3872 366.3872 0 0 0-3.76832 16.87552l-20.13184 96.52224h39.48544l34.53952-159.86688h-68.74112l-37.0176 80.55808a346.624 346.624 0 0 0-7.58784 17.48992c-2.14016 5.36576-3.92192 10.4448-5.34528 15.24736 0.22528-3.97312 0.39936-7.5776 0.512-10.8032 0.1024-3.2256 0.16384-6.07232 0.16384-8.5504 0-2.92864-0.02048-5.34528-0.06144-7.26016a229.376 229.376 0 0 0-0.16384-5.44768l-3.4816-81.23392z m-168.63232 31.2832l7.64928 64.34816h-43.08992l35.4304-64.34816z m-170.20928-2.02752c7.2704 0 12.76928 1.3824 16.4864 4.15744 3.70688 2.77504 5.56032 6.90176 5.56032 12.38016 0 6.59456-2.70336 11.71456-8.09984 15.36-5.39648 3.6352-13.056 5.44768-22.94784 5.44768H305.2544l7.53664-37.34528h16.65024z m278.8864-500.4288H227.4304a30.72 30.72 0 0 0-30.72 30.72v280.95488h640.8192v-81.5616H700.52864c-50.8928-0.01024-92.14976-41.2672-92.16-92.16l-0.03072-137.95328z m96.12288 59.84256v58.91072a15.36 15.36 0 0 0 15.36 15.36h59.0848l-74.4448-74.27072z" fill="#0AC905" p-id="17605"></path></svg>