<svg viewBox="0 0 1024 1024" xmlns="http://www.w3.org/2000/svg" id="图层_1"><defs><style>.cls-1,.cls-12,.cls-13,.cls-18{fill:none;}.cls-1,.cls-12,.cls-13,.cls-14,.cls-15,.cls-16,.cls-17,.cls-5,.cls-9{stroke:#0c0426;}.cls-1,.cls-12,.cls-15,.cls-16,.cls-17{stroke-miterlimit:10;}.cls-17,.cls-2,.cls-4,.cls-9{fill:#8c71ff;}.cls-16,.cls-3,.cls-5,.cls-8{fill:#fff;}.cls-3{opacity:0.86;}.cls-4{opacity:0.5;}.cls-13,.cls-14,.cls-18,.cls-5,.cls-9{stroke-linecap:round;stroke-linejoin:round;}.cls-10,.cls-11,.cls-6,.cls-7{fill:#0c0426;}.cls-12,.cls-6{opacity:0.1;}.cls-10{opacity:0.2;}.cls-11{opacity:0.06;}.cls-14,.cls-15{fill:#c9c9c9;}.cls-18{stroke:#fff;stroke-width:3px;}</style></defs><title>无通知</title><line y2="760.49" x2="894.82" y1="760.49" x1="168.01" class="cls-1"></line><line y2="760.49" x2="988.44" y1="760.49" x1="910.38" class="cls-1"></line><line y2="760.49" x2="154.97" y1="760.49" x1="43.5" class="cls-1"></line><path d="M986.6,434.89s-22-112-178.91-181.11-229.63-.34-308.54,28.37-121.72-10.81-253.43-29.47S-.15,419.52,37.17,564.4,156.81,760.88,336.82,793.8s286.47-75.73,413.8-56S1029.41,646.72,986.6,434.89Z" class="cls-2"></path><path d="M986.6,434.89s-22-112-178.91-181.11-229.63-.34-308.54,28.37-121.72-10.81-253.43-29.47S-.15,419.52,37.17,564.4,156.81,760.88,336.82,793.8s286.47-75.73,413.8-56S1029.41,646.72,986.6,434.89Z" class="cls-3"></path><path d="M184.56,717.5c3.59-2.55,8.38-10.81,8.76-11.47A122.74,122.74,0,0,0,208,713.31c2.93,1.24,5.92,2.4,8.93,3.52-1.45-.3-2.75-.57-2.94-.59-5.2-.49-15.55,1.61-17.86,7a6.93,6.93,0,0,0,4.58,9.24c3.94,1.24,8.62-.76,11.8-3S220,720.2,221,718.34l3.48,1.26c5.57,2,11.14,3.95,16.55,6,1.9.74,3.75,1.53,5.61,2.32-1.29-.27-2.38-.49-2.55-.51-5.21-.49-15.55,1.61-17.87,7a6.93,6.93,0,0,0,4.58,9.24c3.94,1.24,8.63-.76,11.81-3s7-8.58,8.35-10.78c1.88.86,3.75,1.73,5.53,2.65,1.2.66,2.4,1.2,3.56,1.93l3.48,2.07c2.16,1.39,4.4,2.82,6.48,4.23,1.45,1,2.81,1.92,4.19,2.88-1.89-.75-5.61-2.15-5.94-2.23-5.07-1.28-15.61-.77-18.72,4.19a6.94,6.94,0,0,0,3.13,9.83c3.71,1.82,8.64.56,12.13-1.2,3.84-1.93,9.63-9.05,10.35-9.94,2.27,1.59,4.46,3.16,6.51,4.67,4.53,3.33,8.5,6.41,11.8,9.06l2.78-2.65c-3.49-2.68-7.7-5.82-12.55-9.23-2.3-1.62-4.8-3.31-7.37-5a75.24,75.24,0,0,0,3.19-8.25c4.4.27,12.58-2.28,13.63-2.62,1,2.58,2,5.1,2.86,7.49,1.84,5,3.38,9.52,4.64,13.42l3-2.87c-1.24-3.51-2.7-7.47-4.39-11.78-1-2.63-2.17-5.41-3.38-8.26,1-.59,8.73-5.49,11.12-9.08,2.15-3.25,4-8,2.63-11.9a6.93,6.93,0,0,0-9.38-4.28c-5.3,2.48-7.07,12.89-6.41,18.08,0,.31.84,3.58,1.37,5.63-.49-1.16-1-2.29-1.49-3.48-1-2.36-2.13-4.68-3.3-7.18l-1.83-3.6c-.59-1.22-1.37-2.43-2.05-3.66-1.64-2.81-3.45-5.58-5.33-8.33,2.07-.9,9.34-4.22,12-7.12s5.17-7.3,4.41-11.37a6.93,6.93,0,0,0-8.62-5.65c-5.62,1.65-8.95,11.68-9.08,16.9,0,.33.32,4.09.54,6.15-1.14-1.64-2.27-3.29-3.48-4.92-3.49-4.69-7.17-9.33-10.82-14-1.12-1.43-2.21-2.86-3.32-4.29.74-.31,9.48-4.07,12.43-7.32,2.63-2.89,5.17-7.3,4.41-11.36a6.93,6.93,0,0,0-8.62-5.66c-5.62,1.66-8.95,11.68-9.08,16.91,0,.39.47,5.8.66,7.17-2.43-3.15-4.82-6.31-7-9.52a122.21,122.21,0,0,1-8.25-13.51c.35-.14,9.48-4,12.51-7.35,2.63-2.89,5.17-7.3,4.41-11.36a6.93,6.93,0,0,0-8.62-5.66c-5.62,1.66-9,11.68-9.08,16.9,0,.41.51,6.24.68,7.28-.14-.27-.32-.53-.45-.81a89.13,89.13,0,0,1-5.68-14.81c-.84-2.8-1.48-5.53-2.05-8.2,1.78-.54,9.86-3.14,12.92-5.83s5.94-6.69,5.63-10.81a6.93,6.93,0,0,0-8-6.57c-5.77,1-10.17,10.62-10.88,15.8,0,.29-.11,3.19-.13,5.31-.24-1.21-.51-2.45-.71-3.61-.78-4.36-1.22-8.4-1.59-12-.19-2-.32-3.88-.42-5.61,1.46-1.45,7.27-7.35,8.72-11.08s2.19-8.68,0-12.19a6.94,6.94,0,0,0-10.09-2.17c-4.64,3.57-4.13,14.12-2.37,19,.16.43,3.3,6.81,3.38,6.73l.09-.09c.06,1.67.16,3.45.3,5.4.28,3.6.64,7.66,1.33,12a123.19,123.19,0,0,0,2.88,14.07,90,90,0,0,0,5.43,15.12,1.4,1.4,0,0,0,.09.17c-1.17-1.26-4.54-4.68-4.83-4.91-4.06-3.29-13.85-7.24-18.75-4a6.93,6.93,0,0,0-1.28,10.23c2.61,3.21,7.61,4.13,11.52,4,4.4-.15,13-4.4,13.63-4.73a124.85,124.85,0,0,0,8.2,14.16c1.76,2.65,3.62,5.26,5.51,7.86-1-1.06-2-2-2.12-2.11-4.07-3.29-13.86-7.24-18.76-4a6.92,6.92,0,0,0-1.27,10.23c2.6,3.21,7.61,4.13,11.51,4s11.32-3.61,13.26-4.55l2.2,3c3.55,4.73,7.12,9.44,10.47,14.16,1.19,1.67,2.29,3.35,3.4,5-.92-.94-1.71-1.72-1.84-1.83-4.07-3.28-13.86-7.24-18.76-4a6.92,6.92,0,0,0-1.27,10.23c2.6,3.21,7.61,4.13,11.51,4S278.66,706,281,704.89c1.09,1.75,2.18,3.51,3.15,5.26.64,1.21,1.33,2.33,1.91,3.58l1.76,3.64c1,2.35,2.11,4.78,3.07,7.1.67,1.61,1.28,3.16,1.9,4.71-1.16-1.67-3.49-4.89-3.72-5.14a27,27,0,0,0-11.65-7,7.89,7.89,0,0,0-1.12-1,6.94,6.94,0,0,0-10.19,1.61c-3.05,5,1.22,14.65,4.63,18.61.2.24,2.67,2.53,4.25,4-1.06-.7-2.07-1.38-3.17-2.08-2.16-1.4-4.35-2.73-6.71-4.18l-3.52-2c-1.16-.69-2.48-1.27-3.72-1.91-2.92-1.44-6-2.76-9-4,1.22-1.89,5.46-8.67,6.06-12.55s.28-8.94-2.59-11.91a6.94,6.94,0,0,0-10.31,0c-3.77,4.48-1,14.68,1.75,19.11.18.27,2.52,3.23,3.84,4.83-1.85-.74-3.71-1.49-5.61-2.18-5.5-2-11.13-3.84-16.74-5.7-1.72-.57-3.42-1.16-5.13-1.74.44-.67,5.65-8.62,6.32-13,.6-3.85.29-8.94-2.59-11.9a6.92,6.92,0,0,0-10.31,0c-3.77,4.47-1,14.67,1.76,19.1.21.33,3.59,4.58,4.5,5.62-3.76-1.28-7.5-2.6-11.13-4A120.85,120.85,0,0,1,194.28,705c.21-.31,5.69-8.59,6.37-13,.6-3.86.29-8.94-2.59-11.91a6.92,6.92,0,0,0-10.31,0c-3.77,4.48-1,14.67,1.76,19.1.22.35,3.86,4.92,4.58,5.7-.27-.15-.56-.27-.82-.42a89.45,89.45,0,0,1-12.91-9.22c-2.25-1.88-4.29-3.8-6.23-5.71,1.18-1.44,6.49-8.06,7.55-12,1-3.77,1.27-8.85-1.27-12.12a6.92,6.92,0,0,0-10.25-1.09c-4.24,4-2.62,14.47-.35,19.18.12.26,1.66,2.72,2.81,4.5-.86-.88-1.77-1.76-2.58-2.62-3-3.21-5.65-6.33-7.93-9.12-1.28-1.59-2.41-3.06-3.45-4.44.42-2,2-10.15,1.16-14.06s-3-8.44-6.71-10.17a6.92,6.92,0,0,0-9.6,3.75c-1.91,5.54,4.34,14.06,8.52,17.19.36.27,6.51,3.85,6.53,3.75s0-.1,0-.12c1,1.35,2,2.79,3.23,4.34,2.23,2.84,4.76,6,7.76,9.31A123.1,123.1,0,0,0,179.73,696a90.37,90.37,0,0,0,12.87,9.61c.06,0,.12.06.17.1-1.66-.41-6.36-1.4-6.73-1.44-5.2-.49-15.55,1.61-17.87,7a6.93,6.93,0,0,0,4.58,9.24C176.7,721.76,181.38,719.76,184.56,717.5Z" class="cls-4"></path><path d="M211.34,328.51c4.39-.36,12.73-5,13.39-5.38a122.34,122.34,0,0,0,8.87,13.75c1.89,2.56,3.87,5.09,5.88,7.59-1.09-1-2.07-1.9-2.22-2-4.22-3.08-14.19-6.56-18.93-3.12a6.93,6.93,0,0,0-.78,10.28c2.75,3.08,7.8,3.76,11.69,3.44s11.14-4.15,13-5.18c.78.95,1.55,1.91,2.34,2.86,3.77,4.56,7.56,9.09,11.14,13.65,1.26,1.6,2.44,3.23,3.64,4.85-1-.89-1.8-1.63-1.94-1.73-4.22-3.09-14.19-6.57-18.92-3.13a6.93,6.93,0,0,0-.79,10.28c2.76,3.09,7.8,3.76,11.7,3.44s10.43-3.77,12.68-5c1.17,1.7,2.35,3.4,3.4,5.1.7,1.17,1.45,2.26,2.08,3.48l1.93,3.55c1.15,2.31,2.34,4.67,3.41,6.95.75,1.58,1.43,3.09,2.13,4.62-1.24-1.62-3.73-4.72-4-5-3.7-3.69-13-8.64-18.23-6a6.92,6.92,0,0,0-2.33,10c2.25,3.46,7.14,4.9,11,5.17,4.29.3,12.9-2.86,14-3.26,1.14,2.53,2.23,5,3.22,7.34,2.19,5.18,4,9.85,5.51,13.82l3.74-.86c-1.63-4.09-3.64-8.94-6.07-14.34-1.15-2.57-2.43-5.3-3.77-8.09a75.35,75.35,0,0,0,6.95-5.46c3.65,2.49,12,4.47,13.06,4.71-.44,2.74-.89,5.4-1.36,7.9-1,5.24-2,9.92-2.88,13.91l4.05-.93c.73-3.66,1.5-7.8,2.24-12.38.46-2.78.9-5.76,1.32-8.82,1.12,0,10.32-.26,14.2-2.13,3.51-1.69,7.52-4.83,8.34-8.88a6.92,6.92,0,0,0-5.87-8.47c-5.83-.57-12.67,7.47-14.75,12.27-.13.28-1.11,3.5-1.7,5.54.16-1.25.33-2.47.49-3.76.32-2.55.57-5.11.84-7.85.08-1.34.17-2.68.26-4s.06-2.78.11-4.19c0-3.25-.12-6.56-.32-9.88,2.23.27,10.18,1.14,13.93,0s8.18-3.63,9.6-7.51a6.94,6.94,0,0,0-4.53-9.27c-5.67-1.44-13.65,5.47-16.43,9.9-.18.27-1.82,3.67-2.68,5.56-.14-2-.27-4-.48-6-.6-5.82-1.39-11.69-2.15-17.55-.24-1.79-.45-3.59-.67-5.38.8.11,10.22,1.34,14.43.06,3.73-1.14,8.17-3.63,9.59-7.52a6.93,6.93,0,0,0-4.52-9.26c-5.67-1.45-13.65,5.47-16.44,9.89-.21.33-2.56,5.23-3.1,6.51-.48-3.95-.92-7.89-1.2-11.79a121.66,121.66,0,0,1-.18-15.83c.37.05,10.2,1.38,14.51.07,3.73-1.14,8.17-3.63,9.59-7.51a6.93,6.93,0,0,0-4.52-9.27c-5.68-1.45-13.65,5.47-16.44,9.89-.22.35-2.75,5.62-3.14,6.61,0-.31,0-.63,0-.93A90.45,90.45,0,0,1,301,288.27c.72-2.83,1.56-5.51,2.43-8.09,1.81.44,10.09,2.34,14.09,1.58,3.84-.72,8.52-2.71,10.36-6.41a6.93,6.93,0,0,0-3.48-9.71c-5.48-2.06-14.17,3.94-17.42,8-.18.22-1.72,2.68-2.82,4.49.41-1.16.81-2.36,1.23-3.46,1.56-4.15,3.24-7.84,4.76-11.11.88-1.85,1.71-3.5,2.5-5,2-.5,10-2.6,13.16-5.07s6.31-6.34,6.24-10.47a6.92,6.92,0,0,0-7.56-7c-5.81.69-10.76,10-11.76,15.15-.09.44-.65,7.54-.54,7.51l.12,0c-.79,1.47-1.63,3.05-2.5,4.79-1.59,3.24-3.36,6.91-5,11A125.22,125.22,0,0,0,300.12,288a90.83,90.83,0,0,0-3.06,15.77,1.21,1.21,0,0,1,0,.19c-.35-1.68-1.5-6.34-1.63-6.68-1.82-4.91-8.21-13.31-14.06-13.06A6.94,6.94,0,0,0,275,292.4c.6,4.09,4.43,7.44,7.86,9.32,3.85,2.12,13.38,2.84,14.13,2.9a123.58,123.58,0,0,0-.18,16.36c.16,3.18.42,6.38.72,9.58-.36-1.44-.68-2.73-.75-2.9-1.82-4.91-8.21-13.31-14.06-13.05a6.93,6.93,0,0,0-6.33,8.14c.6,4.09,4.43,7.44,7.86,9.32s11.57,2.69,13.72,2.86c.13,1.23.24,2.46.38,3.68.63,5.89,1.29,11.76,1.76,17.53.17,2,.26,4.05.35,6.06-.31-1.28-.59-2.36-.65-2.51-1.82-4.91-8.21-13.31-14.06-13.05a6.92,6.92,0,0,0-6.33,8.14c.6,4.09,4.43,7.44,7.86,9.32s10.79,2.61,13.34,2.83c0,2.06.07,4.13,0,6.13-.07,1.36-.05,2.68-.19,4.05s-.24,2.7-.35,4c-.32,2.55-.62,5.19-1,7.67-.25,1.73-.51,3.38-.77,5-.14-2-.51-6-.57-6.32a26.8,26.8,0,0,0-6.46-11.94,8.37,8.37,0,0,0-.43-1.48,6.94,6.94,0,0,0-9.58-3.82c-5.17,2.74-6.44,13.22-5.53,18.37.05.3,1,3.53,1.64,5.56-.56-1.14-1.08-2.25-1.67-3.41-1.14-2.3-2.34-4.57-3.63-7l-2-3.51c-.64-1.19-1.48-2.36-2.22-3.55-1.78-2.73-3.71-5.41-5.72-8.07,2-1,9.13-4.67,11.62-7.69s4.82-7.54,3.86-11.56a6.93,6.93,0,0,0-8.88-5.24c-5.53,1.92-8.37,12.09-8.26,17.32,0,.33.52,4.07.84,6.12-1.22-1.59-2.43-3.18-3.72-4.75-3.71-4.52-7.6-9-11.47-13.45-1.19-1.37-2.35-2.74-3.52-4.12.72-.35,9.26-4.52,12.06-7.91,2.48-3,4.81-7.54,3.86-11.56a6.93,6.93,0,0,0-8.89-5.23c-5.53,1.92-8.37,12.09-8.25,17.32,0,.39.75,5.77,1,7.13-2.58-3-5.12-6.07-7.5-9.17a120.36,120.36,0,0,1-8.88-13.1c.33-.16,9.27-4.47,12.13-7.94,2.49-3,4.82-7.54,3.86-11.56a6.93,6.93,0,0,0-8.88-5.24c-5.53,1.92-8.37,12.09-8.25,17.32,0,.41.8,6.2,1,7.24-.15-.26-.34-.52-.49-.79a89.71,89.71,0,0,1-6.38-14.52c-1-2.76-1.75-5.45-2.44-8.09,1.75-.63,9.7-3.61,12.62-6.45s5.61-7,5.1-11.07a6.94,6.94,0,0,0-8.25-6.18c-5.71,1.31-9.65,11.1-10.11,16.31,0,.29,0,3.19.13,5.31-.3-1.19-.63-2.42-.89-3.57-1-4.32-1.62-8.33-2.15-11.89-.29-2-.51-3.87-.7-5.59,1.39-1.51,6.91-7.69,8.18-11.49s1.77-8.76-.57-12.17a6.93,6.93,0,0,0-10.18-1.68c-4.46,3.79-3.44,14.3-1.45,19.13.18.42,3.62,6.64,3.7,6.56l.08-.09c.15,1.66.33,3.44.56,5.38.46,3.58,1,7.61,1.91,12a121.7,121.7,0,0,0,3.55,13.91,90.09,90.09,0,0,0,6.15,14.84l.1.17c-1.22-1.2-4.76-4.45-5.06-4.67-4.22-3.09-14.18-6.57-18.92-3.13a6.92,6.92,0,0,0-.78,10.28C202.4,328.16,207.44,328.83,211.34,328.51Z" class="cls-4"></path><rect height="452.95" width="242.11" y="276.73" x="298.07" class="cls-5"></rect><rect height="13.52" width="144.21" y="332.04" x="328.73" class="cls-6"></rect><rect height="13.52" width="144.21" y="370.65" x="328.73" class="cls-6"></rect><rect height="13.52" width="144.21" y="409.25" x="328.73" class="cls-6"></rect><rect height="13.52" width="144.21" y="447.86" x="328.73" class="cls-6"></rect><rect height="13.52" width="144.21" y="486.47" x="328.73" class="cls-6"></rect><rect height="13.52" width="144.21" y="525.08" x="328.73" class="cls-6"></rect><rect height="13.52" width="124.3" y="628.6" x="348.64" class="cls-6"></rect><rect height="13.52" width="144.21" y="667.21" x="328.73" class="cls-6"></rect><rect height="34.92" width="256.26" y="259.27" x="288.64" class="cls-7"></rect><path d="M511.79,286.08a4.39,4.39,0,1,0-4.39,4.4A4.39,4.39,0,0,0,511.79,286.08Z" class="cls-8"></path><path d="M523.72,286.08a4.4,4.4,0,1,0-4.4,4.4A4.4,4.4,0,0,0,523.72,286.08Z" class="cls-8"></path><path d="M535.64,286.08a4.39,4.39,0,1,0-4.39,4.4A4.39,4.39,0,0,0,535.64,286.08Z" class="cls-8"></path><path d="M552.59,359.12a3.17,3.17,0,0,0,3.17-3.17V324.27a3.17,3.17,0,0,0-3.17-3.16,2.88,2.88,0,0,0-.59.06V261.91a20.41,20.41,0,0,0-20.41-20.42H306.66a20.41,20.41,0,0,0-20.41,20.42V740.06a20.42,20.42,0,0,0,20.41,20.43H531.59A20.42,20.42,0,0,0,552,740.06V449.17a2.88,2.88,0,0,0,.59.06,3.17,3.17,0,0,0,3.17-3.17V414.38a3.16,3.16,0,0,0-3.17-3.16,2.88,2.88,0,0,0-.59.06v-7.16a3.8,3.8,0,0,0,.59.06,3.17,3.17,0,0,0,3.17-3.17V369.33a3.17,3.17,0,0,0-3.17-3.17,2.88,2.88,0,0,0-.59.06v-7.16A2.88,2.88,0,0,0,552.59,359.12ZM540.18,729.68H298.07V276.73H540.18Z" class="cls-9"></path><rect rx="2.55" height="5.09" width="41.98" y="257.56" x="393.3" class="cls-7"></rect><circle r="1.71" cy="260.1" cx="443.69" class="cls-7"></circle><circle r="1.71" cy="260.1" cx="451.5" class="cls-7"></circle><polygon points="887.8 652.32 887.11 665.48 894.83 670.79 885.13 672.59 878.2 686.8 880.2 671.21 872.24 664.5 882.18 664.11 887.8 652.32" class="cls-5"></polygon><polygon points="522.52 166.25 525.11 177.91 533.09 180.66 525.11 184.59 522.52 198.69 520.48 184.59 511.95 180.66 520.48 177.91 522.52 166.25" class="cls-5"></polygon><polygon points="126.76 511.39 135.41 525.01 146.82 524.84 138.48 533.5 141.67 552.61 132.6 535.63 119.95 534.56 129.53 527.13 126.76 511.39" class="cls-5"></polygon><polygon points="198.71 355.75 207.24 364.1 215.44 362.04 210.9 369.69 216.44 382.91 207.03 372.22 197.74 373.6 203.38 366.62 198.71 355.75" class="cls-5"></polygon><polygon points="811.63 436.69 813.33 444.32 818.59 446.13 813.33 448.7 811.63 457.94 810.29 448.7 804.67 446.13 810.29 444.32 811.63 436.69" class="cls-9"></polygon><rect height="338.4" width="460.58" y="398.25" x="339" class="cls-10"></rect><rect height="338.4" width="460.58" y="379.05" x="358.2" class="cls-5"></rect><rect height="47.28" width="460.58" y="379.05" x="358.2" class="cls-7"></rect><rect height="88.39" width="102.2" y="455.27" x="391.02" class="cls-11"></rect><rect height="55.39" width="70.66" y="592.22" x="626.18" class="cls-11"></rect><rect height="55.39" width="70.66" y="592.22" x="715.3" class="cls-11"></rect><rect height="14.48" width="149.75" y="577.74" x="391.02" class="cls-11"></rect><rect height="14.48" width="204.4" y="620.56" x="391.02" class="cls-11"></rect><rect height="14.48" width="169.09" y="663.39" x="391.02" class="cls-11"></rect><rect height="14.48" width="161.77" y="670.63" x="624.19" class="cls-11"></rect><line y2="458.28" x2="774" y1="458.28" x1="655.3" class="cls-12"></line><line y2="486.08" x2="774" y1="486.08" x1="655.3" class="cls-12"></line><line y2="513.88" x2="774" y1="513.88" x1="655.3" class="cls-12"></line><line y2="541.67" x2="774" y1="541.67" x1="655.3" class="cls-12"></line><line y2="569.47" x2="774" y1="569.47" x1="655.3" class="cls-12"></line><line y2="458.17" x2="595.43" y1="458.17" x1="506.48" class="cls-12"></line><line y2="479.45" x2="595.43" y1="479.45" x1="506.48" class="cls-12"></line><line y2="500.73" x2="595.43" y1="500.73" x1="506.48" class="cls-12"></line><line y2="522.01" x2="595.43" y1="522.01" x1="506.48" class="cls-12"></line><line y2="543.29" x2="595.43" y1="543.29" x1="506.48" class="cls-12"></line><path d="M437.26,634a163.19,163.19,0,0,1,0-117.49" class="cls-13"></path><path d="M467,546.28a126.88,126.88,0,0,0,0,58" class="cls-13"></path><path d="M711.88,604.24a126.66,126.66,0,0,0,0-58" class="cls-13"></path><path d="M741.64,516.52a163.19,163.19,0,0,1,0,117.49" class="cls-13"></path><path d="M451.87,619.39a145,145,0,0,1,0-88.26" class="cls-13"></path><path d="M467,546.28a126.88,126.88,0,0,0,0,58" class="cls-13"></path><path d="M711.88,604.24a126.66,126.66,0,0,0,0-58" class="cls-13"></path><path d="M727,531.13a145,145,0,0,1,0,88.26" class="cls-13"></path><path d="M589.45,458.14a30.45,30.45,0,0,1,30.11,28.45,73.71,73.71,0,0,1,43.79,67.29v50.73c14.78,12,21.9,27.9,21.9,47.6a8.42,8.42,0,0,1-8.22,8.21H621.38l0,1.19a31.93,31.93,0,0,1-63.84-1.2H501.86a8.42,8.42,0,0,1-8.21-8.21c0-19.14,7.12-35.55,21.9-47.59V553.89a73.71,73.71,0,0,1,43.79-67.3A30.45,30.45,0,0,1,589.45,458.14Zm16,202.28H573.48l0,.94a16,16,0,0,0,31.91-.93Z" class="cls-9"></path><circle r="25.16" cy="496.81" cx="646.7" class="cls-7"></circle><path d="M654,487.11q2.14,3.61,2.15,9.7t-2.15,9.7a8.32,8.32,0,0,1-14.5,0q-2.15-3.61-2.14-9.7t2.14-9.7a8.32,8.32,0,0,1,14.5,0Zm-12.43,2.26a19.64,19.64,0,0,0-1.13,7.44,20,20,0,0,0,1.13,7.44q1.58,3.87,5.18,3.87c2.41,0,4.13-1.29,5.19-3.87a20.09,20.09,0,0,0,1.16-7.44,19.73,19.73,0,0,0-1.16-7.44c-1.06-2.58-2.78-3.87-5.19-3.87S642.57,486.79,641.52,489.37Z" class="cls-8"></path><path d="M385.15,400.59a4.4,4.4,0,1,0-4.39,4.4A4.4,4.4,0,0,0,385.15,400.59Z" class="cls-8"></path><path d="M403.84,400.59a4.4,4.4,0,1,0-4.4,4.4A4.4,4.4,0,0,0,403.84,400.59Z" class="cls-8"></path><path d="M422.52,400.59a4.39,4.39,0,1,0-4.39,4.4A4.39,4.39,0,0,0,422.52,400.59Z" class="cls-8"></path><rect height="89.24" width="15.11" y="236.36" x="620.72" class="cls-9"></rect><rect height="89.24" width="9.11" y="236.36" x="617.62" class="cls-9"></rect><rect height="56.7" width="2.11" y="251.73" x="620.65" class="cls-8"></rect><rect height="56.7" width="2.11" y="251.73" x="630.24" class="cls-8"></rect><rect height="96.39" width="15.11" y="229.16" x="759.01" class="cls-9"></rect><rect height="61.25" width="4.17" y="245.77" x="764.48" class="cls-8"></rect><rect height="119.24" width="34.26" y="206.45" x="634.91" class="cls-14"></rect><rect height="7.14" width="34.26" y="216.89" x="634.91" class="cls-5"></rect><rect height="7.14" width="34.26" y="307.83" x="634.91" class="cls-5"></rect><rect height="76.1" width="9.11" y="249.58" x="715.64" class="cls-9"></rect><rect height="48.35" width="2.11" y="262.69" x="718.67" class="cls-8"></rect><rect height="76.1" width="14" y="249.58" x="774.12" class="cls-15"></rect><rect height="48.35" width="4" y="262.69" x="779.12" class="cls-16"></rect><rect height="119.24" width="34.26" y="206.45" x="724.75" class="cls-14"></rect><rect height="7.14" width="34.26" y="216.89" x="724.75" class="cls-5"></rect><rect height="7.14" width="34.26" y="307.83" x="724.75" class="cls-5"></rect><rect height="111.04" width="23.23" y="214.64" x="692.4" class="cls-17"></rect><rect height="97.06" width="23.23" y="228.62" x="669.17" class="cls-17"></rect><rect height="5.81" width="23.23" y="237.12" x="669.17" class="cls-16"></rect><rect height="5.81" width="23.23" y="311.15" x="669.17" class="cls-16"></rect><circle r="3.23" cy="228.62" cx="703.71" class="cls-5"></circle><rect transform="translate(977.87 -429.55) rotate(90)" height="5.81" width="68.26" y="271.25" x="669.58" class="cls-16"></rect><rect height="11" width="229" y="325.68" x="588.37" class="cls-7"></rect><rect height="14.59" width="5.59" y="336.68" x="630.13" class="cls-7"></rect><rect height="14.59" width="5.59" y="336.68" x="770.02" class="cls-7"></rect><path d="M540.18,544.05c0-6.66,6.68-20.63,16.92-25.83" class="cls-18"></path></svg>