<?xml version="1.0" standalone="no"?><!DOCTYPE svg PUBLIC "-//W3C//DTD SVG 1.1//EN" "http://www.w3.org/Graphics/SVG/1.1/DTD/svg11.dtd"><svg t="1725799208585" class="icon" viewBox="0 0 1024 1024" version="1.1" xmlns="http://www.w3.org/2000/svg" p-id="15607" xmlns:xlink="http://www.w3.org/1999/xlink" width="200" height="200"><path d="M557.25 723.188L512 677.938c-8.344-8.312-8.344-21.844 0-30.188 8.312-8.312 21.844-8.312 30.156 0l45.25 45.282L1024 256.454 918.406 150.86c-8.344 8.328-21.844 8.328-30.188 0-8.312-8.328-8.312-21.844 0-30.172l-15.062-15.078a21.346 21.346 0 0 1-30.188-0.016c-8.312-8.328-8.312-21.828 0-30.156L767.562 0 0 767.562 75.406 843a21.332 21.332 0 0 1 30.188 0c8.312 8.312 8.312 21.812 0 30.156l15.062 15.094a21.332 21.332 0 0 1 30.188 0c8.312 8.312 8.344 21.812 0 30.156L256.438 1024l300.812-300.812z" fill="#A0D468" p-id="15608"></path><path d="M512 677.938L211.188 978.75 256.438 1024l300.812-300.812L512 677.938zM542.156 647.75l45.25 45.282L1024 256.454l-45.25-45.25z" fill="#8CC153" p-id="15609"></path><path d="M964.532 285.734c-8.312 8.328-8.312 21.844 0 30.172l30.188-30.172c-8.344-8.328-21.844-8.328-30.188 0zM919.282 330.984c-8.312 8.328-8.312 21.844 0 30.172l30.188-30.172c-8.346-8.328-21.846-8.328-30.188 0zM874.032 376.234c-8.344 8.344-8.344 21.844 0 30.172l30.156-30.172c-8.312-8.328-21.812-8.328-30.156 0zM828.782 421.5c-8.344 8.328-8.344 21.844 0 30.172l30.156-30.172c-8.314-8.328-21.844-8.328-30.156 0zM783.532 466.75c-8.344 8.328-8.344 21.844 0 30.172l30.156-30.172c-8.312-8.328-21.844-8.328-30.156 0zM738.25 512c-8.312 8.344-8.312 21.844 0 30.172L768.438 512c-8.344-8.328-21.844-8.328-30.188 0zM693 557.25c-8.312 8.344-8.312 21.876 0 30.188l30.188-30.188c-8.344-8.312-21.844-8.312-30.188 0zM647.75 602.5c-8.312 8.344-8.312 21.876 0 30.188l30.188-30.188c-8.344-8.312-21.844-8.312-30.188 0zM602.5 647.75c-8.312 8.376-8.344 21.876 0 30.188l30.188-30.188c-8.344-8.312-21.844-8.312-30.188 0zM512 738.282c-8.344 8.344-8.344 21.844 0 30.156l30.156-30.156c-8.312-8.344-21.844-8.344-30.156 0zM466.75 783.532c-8.344 8.344-8.344 21.844 0 30.156l30.156-30.156c-8.344-8.344-21.844-8.344-30.156 0zM421.468 828.812c-8.312 8.312-8.312 21.812 0 30.156l30.188-30.156a21.278 21.278 0 0 0-30.188 0zM376.218 874.062c-8.312 8.312-8.312 21.812 0 30.156l30.188-30.156a21.332 21.332 0 0 0-30.188 0zM330.968 919.312c-8.312 8.312-8.312 21.812 0 30.156l30.188-30.156a21.332 21.332 0 0 0-30.188 0zM285.718 964.562c-8.344 8.312-8.344 21.812 0 30.156l30.156-30.156c-8.312-8.344-21.812-8.344-30.156 0z" fill="#FFCE54" p-id="15610"></path><path d="M211.19 707.214l60.344 60.342-60.344 60.342-60.342-60.342zM331.876 707.218l-60.344-60.342 60.344-60.314 60.312 60.314zM512.876 526.204l-60.344-60.344 60.344-60.328 60.342 60.328zM633.56 284.84l60.344 60.34-60.342 60.344-60.344-60.344z" fill="#656D78" p-id="15611"></path><path d="M120.656 767.562l90.532 90.5 90.5-90.5-90.5-90.5-90.532 90.5z m90.532 30.188L181 767.562l30.188-30.188 30.156 30.188-30.156 30.188zM241.344 646.876l90.532 90.5 90.5-90.5-90.5-90.5-90.532 90.5z m90.532 30.186l-30.188-30.188 30.188-30.156 30.156 30.156-30.156 30.188zM422.376 465.86l90.5 90.516 90.5-90.516-90.5-90.5-90.5 90.5z m90.5 30.172L482.72 465.86l30.156-30.172 30.188 30.172-30.188 30.172zM633.562 254.672l-90.5 90.516 90.5 90.5 90.5-90.5-90.5-90.516z m-30.186 90.516l30.188-30.172 30.156 30.172-30.156 30.172-30.188-30.172z" fill="#434A54" p-id="15612"></path><path d="M754.25 284.844l-60.344-60.344 60.344-60.328 60.312 60.328z" fill="#656D78" p-id="15613"></path><path d="M754.25 134l-90.532 90.5 90.532 90.516 90.5-90.516L754.25 134z m0 120.672l-30.188-30.172 30.188-30.156 30.156 30.156-30.156 30.172z" fill="#434A54" p-id="15614"></path></svg>